<svg width="217" height="169" viewBox="0 0 217 169" fill="none" xmlns="http://www.w3.org/2000/svg">
<g clip-path="url(#clip0)">
<path opacity="0.1" d="M76.1199 165.726C97.0253 165.726 113.972 162.531 113.972 158.589C113.972 154.648 97.0253 151.452 76.1199 151.452C55.2145 151.452 38.2673 154.648 38.2673 158.589C38.2673 162.531 55.2145 165.726 76.1199 165.726Z" fill="#FAF2E7"/>
<path opacity="0.2" d="M126.079 23.833C112.167 23.3538 98.9177 18.8824 86.2658 13.9916C73.6139 9.1009 61.0823 3.68387 47.504 1.09302C38.7706 -0.5736 28.7819 -0.811077 21.7466 3.84432C14.9735 8.33713 12.7853 16.0712 11.6096 23.2532C10.724 28.6574 10.2038 34.3462 12.6284 39.4059C14.3136 42.9189 17.3014 45.8713 19.3692 49.2366C26.5636 60.9436 21.4779 75.3804 13.6838 86.8114C10.0297 92.1728 5.78444 97.2946 2.96215 102.996C0.139868 108.698 -1.16487 115.253 1.30489 121.085C3.75102 126.862 9.5826 131.192 15.9 134.24C28.7303 140.434 43.8434 142.206 58.5911 143.211C91.2268 145.432 124.035 144.471 156.756 143.506C168.867 143.151 181.028 142.79 192.941 140.926C199.557 139.891 206.386 138.248 211.19 134.281C217.286 129.247 218.797 120.724 214.711 114.412C207.858 103.822 188.917 101.193 184.122 89.8302C181.486 83.5745 184.192 76.6085 188.025 70.8085C196.245 58.3634 210.021 47.4459 210.745 33.223C211.244 23.4543 204.621 13.6707 194.381 9.04742C183.649 4.20161 168.763 4.81135 160.849 12.8321C152.692 21.0817 138.363 24.2588 126.079 23.833Z" fill="#FFD8A1"/>
<path d="M115.024 77.3917L108.44 72.9738L111.761 68.0531L94.3714 66.6732L88.1229 71.4826L80.3009 67.1182L73.7771 67.899L73.6998 66.1875C73.619 64.4032 73.4389 62.6248 73.1602 60.8603C73.1882 60.3255 73.2075 59.7115 73.2054 59.0439C73.2054 56.2306 72.8228 52.5016 71.1419 50.0156L71.5288 46.554L68.3905 42.8634C68.8945 41.8642 69.4691 40.9019 70.1101 39.9838C70.2176 39.8297 70.3251 39.68 70.4411 39.5345C74.5144 39.2414 77.7279 35.9082 77.7279 31.8325C77.7279 31.6443 77.7279 31.456 77.7064 31.2699C77.7064 31.195 77.6914 31.118 77.6828 31.0431C78.0804 31.257 78.4824 31.471 78.8843 31.6849C78.9596 31.7919 79.0456 31.8989 79.1401 32.0251L79.1595 32.0486L79.2798 32.1962L79.3185 32.2412C79.3615 32.2925 79.4067 32.3417 79.4518 32.3931L79.4819 32.4273C79.5958 32.5535 79.7162 32.6819 79.8452 32.8081C79.8605 32.8206 79.8749 32.8341 79.8882 32.8488L80.0494 32.9985L80.0945 33.0392C80.2321 33.1611 80.3782 33.2788 80.5244 33.39L80.5717 33.4243L80.7565 33.5505L80.8167 33.589C80.8877 33.6318 80.9608 33.6767 81.0317 33.7174L81.0575 33.7324C81.1413 33.7773 81.2273 33.8201 81.3133 33.8607L81.3563 33.8778C81.4293 33.9092 81.501 33.9392 81.5712 33.9677L81.6378 33.9912C81.7131 34.0169 81.7862 34.0404 81.8635 34.0618L81.9108 34.0747C82.0054 34.0982 82.1 34.1175 82.1967 34.1324H82.2075C82.2985 34.1471 82.3904 34.1564 82.4826 34.1602H82.5449C82.6273 34.1645 82.7098 34.1645 82.7921 34.1602H82.8459C82.949 34.1543 83.0516 34.1422 83.1532 34.1239C83.6342 34.0609 84.096 33.8961 84.5074 33.6404C84.6122 33.5706 84.7051 33.4847 84.7826 33.3858C85.2125 32.8252 84.7396 32.2112 84.7396 32.2112C84.5719 31.8133 83.4843 31.533 83.4843 31.533C83.4843 31.533 80.0451 30.1039 80.0451 28.9657C80.0451 27.8275 79.1853 21.9227 70.31 20.5727C70.31 20.5727 64.5365 20.2497 62.9136 23.3262L62.8792 23.6856C62.402 23.983 62.0065 24.5799 61.5358 24.7553C61.3324 24.7988 61.1363 24.8708 60.9533 24.9692V24.9286C60.8989 24.9759 60.8544 25.0333 60.8221 25.0976C60.721 25.2979 60.6604 25.5159 60.6437 25.7394C60.5953 26.0125 60.5001 26.2752 60.3622 26.5161C60.3237 26.5845 60.2806 26.6503 60.2332 26.7129L60.1966 26.7706C60.4462 26.79 60.6968 26.7497 60.9275 26.653C60.8911 26.9459 60.8189 27.2333 60.7125 27.5088C60.8492 27.5131 60.9842 27.4784 61.1016 27.4086C61.2189 27.3388 61.3137 27.2369 61.3746 27.1151V27.098L61.4025 27.0595C61.4566 26.9604 61.5012 26.8566 61.5358 26.7493L61.5121 26.7749C61.5551 26.6359 61.5938 26.4947 61.6411 26.3577C61.6628 26.2806 61.6985 26.2081 61.7464 26.1438C61.8038 26.0862 61.874 26.0429 61.9512 26.0172C62.0285 25.9916 62.1108 25.9844 62.1914 25.9962L62.1032 27.8511H62.1419C62.0902 27.986 62.0269 28.1163 61.9528 28.2404C61.6476 28.7325 61.093 29.0684 60.8888 29.6075C60.8007 29.8676 60.7671 30.1428 60.7899 30.4162C60.7899 30.5767 60.8093 30.7393 60.8221 30.8997V30.8869C60.8522 31.3148 60.8608 31.7213 60.6287 32.0657C60.4696 32.3011 60.2138 32.4786 60.1257 32.7461C60.1013 32.8206 60.0904 32.8988 60.0935 32.9771C60.1107 33.2116 60.1599 33.4426 60.2396 33.6639C60.2406 33.6597 60.2406 33.6553 60.2396 33.6511C60.2932 33.8138 60.3058 33.9872 60.2762 34.156C60.1794 34.5838 59.6571 34.9411 59.6829 35.3498C59.6814 35.4035 59.6894 35.4571 59.7066 35.5081C59.8071 35.7077 59.9811 35.861 60.1923 35.936C60.5238 36.1235 60.9044 36.2071 61.2843 36.1756C61.4267 36.15 61.5644 36.1031 61.6927 36.0365C61.5422 36.381 61.3875 36.7211 61.2306 37.0442C61.2069 37.0955 61.1811 37.1469 61.1553 37.1982C61.1553 37.1982 59.8269 36.3146 59.0725 38.116C58.8522 38.4904 58.6947 38.8979 58.606 39.3227C58.5682 39.4926 58.515 39.6587 58.447 39.819C58.112 40.3834 57.6107 40.8316 57.0111 41.1027C55.4721 41.8044 49.2557 49.5213 49.1461 51.5196C49.0923 52.2996 48.9598 53.0723 48.7506 53.8259C48.2612 55.6006 48.1355 57.4552 48.3809 59.2793C48.4577 59.8688 48.585 60.4507 48.7613 61.0186C49.4212 63.0147 49.8619 66.7395 49.8619 66.7395L50.5755 73.2048C50.549 74.0972 50.5878 74.9903 50.6916 75.877C49.9629 76.7049 47.0374 80.1558 48.1552 81.0951C49.015 81.8353 50.5196 81.7134 51.3644 81.5615C50.6529 83.3136 49.533 86.3602 49.3847 88.4526C49.1697 91.5483 49.7523 95.6496 50.6744 97.2242C51.5965 98.7988 54.6703 102.838 54.6703 102.838C54.6703 102.838 54.5263 108.379 55.6247 110.392C56.7231 112.406 57.1659 116.582 57.1659 116.582C57.1659 116.582 58.1912 120.108 57.6774 121.404C57.1637 122.701 58.6297 123.779 57.0906 124.641C55.5516 125.503 53.5827 144.936 53.5827 144.936C53.5827 144.936 52.7895 157.672 53.5827 158.32C53.6251 158.351 53.6705 158.377 53.7181 158.399V162.678C53.7181 162.678 53.1678 163.576 55.4054 163.758C56.938 163.88 61.2821 164.156 63.8594 164.317L65.8563 164.441C65.8563 164.441 70.5851 165.378 72.6745 164.441C74.7638 163.504 78.4673 163.525 77.9171 161.05C77.8441 160.713 77.7464 160.382 77.6247 160.059C77.0207 158.523 75.9954 158.348 74.106 157.92C73.9964 157.896 73.8911 157.875 73.7943 157.858C71.8039 157.513 71.1505 158.435 70.0349 157.235C69.0655 156.198 65.9788 155.036 64.9277 154.668C64.9535 154.591 64.9857 154.516 65.0115 154.437C64.7139 154.387 64.437 154.252 64.214 154.05L67.0621 154.229L68.7581 154.334C68.7581 154.334 72.7776 155.132 74.5617 154.334C76.3458 153.536 79.484 153.558 79.0155 151.454C78.9537 151.168 78.8711 150.886 78.7683 150.612C78.2545 149.306 77.3818 149.163 75.7762 148.802C75.6837 148.782 75.5978 148.763 75.5118 148.748C73.8201 148.455 73.2656 149.238 72.3176 148.22C71.5051 147.351 68.9408 146.378 68.0187 146.046C68.0187 145.571 67.3738 144.895 66.9676 144.217C66.4904 143.425 67.3717 140.655 67.3717 140.655L67.8746 129.159C68.0662 129.075 68.2688 129.017 68.4765 128.988C68.4765 128.988 70.7507 126.828 70.2369 124.525C70.1323 123.829 70.0777 123.126 70.0736 122.422C70.8216 121.731 71.8512 120.711 72.1435 120.082C72.6207 119.057 72.1435 114.091 72.1435 114.091V95.104L75.9481 95.487L79.4002 95.84L80.4513 95.947L83.9034 96.2936L91.8372 97.0916L98.9864 95.7437L102.08 95.1618L108.44 93.9637V78.4743L115.024 77.3917ZM62.66 26.0646L62.2172 26.0176C62.3633 26.024 62.5181 26.0518 62.66 26.0646Z" fill="url(#paint0_linear)"/>
<path d="M99.5926 87.4494C97.4431 90.5109 89.7157 88.8893 89.7157 88.8893L83.7272 83.3117L82.9211 82.5565L84.2732 79.6982C84.2732 79.6982 84.7031 79.8159 85.4403 80.0256C89.3116 81.1445 101.407 84.8757 99.5926 87.4494Z" fill="#EFB7B9"/>
<path opacity="0.1" d="M85.4361 80.0256C85.1717 80.9413 84.4473 82.3126 83.7272 83.3118L82.9211 82.5565L84.2732 79.6982C84.2732 79.6982 84.7074 79.8159 85.4361 80.0256Z" fill="black"/>
<path d="M64.8976 47.793C64.8976 47.793 59.3777 50.2298 59.6486 56.2138C59.8434 60.069 60.2655 63.9094 60.9125 67.7154C60.9125 67.7154 59.784 76.7203 64.4828 79.0415C69.1816 81.3628 73.53 83.2712 73.53 83.2712C73.53 83.2712 80.8813 84.0585 81.7948 84.3837C82.7083 84.7089 85.5629 79.7369 85.0362 78.9624C84.5096 78.1879 77.7624 76.5641 76.9026 75.2719C76.0428 73.9796 74.0545 73.1816 74.0545 73.1816C74.0545 73.1816 72.0017 71.945 71.862 70.8283C71.7223 69.7115 72.2639 68.8792 72.4015 68.3893C72.5391 67.8994 72.8873 63.1691 72.8873 63.1691C72.8873 63.1691 75.2045 46.3318 64.8976 47.793Z" fill="#DCE6F2"/>
<path opacity="0.1" d="M68.541 67.4692C68.541 67.4692 60.9684 68.7315 61.7013 71.3694C61.7013 71.3694 64.4505 68.5218 68.541 67.4692Z" fill="black"/>
<path opacity="0.1" d="M68.5989 68.5366C68.5989 68.5366 64.4353 71.9191 65.2499 72.0924C66.0646 72.2656 68.5989 68.5366 68.5989 68.5366Z" fill="black"/>
<path opacity="0.1" d="M70.6002 69.7153C70.6002 69.7153 69.4847 71.9895 70.1703 71.8355C70.856 71.6815 70.6002 69.7153 70.6002 69.7153Z" fill="black"/>
<path opacity="0.1" d="M85.7154 80.2671L85.2554 80.1366C85.3865 79.7087 85.4231 79.3621 85.3156 79.2016C84.789 78.4272 78.046 76.8055 77.1883 75.5111C76.3307 74.2168 74.3403 73.4209 74.3403 73.4209C74.3403 73.4209 72.2875 72.1843 72.1478 71.0675C72.0081 69.9507 72.5497 69.1185 72.6873 68.6286C72.8249 68.1386 73.1731 63.4062 73.1731 63.4062C73.1731 63.4062 75.4838 46.5711 65.177 48.0323C65.177 48.0323 59.6571 50.4712 59.9258 56.4552C60.1207 60.3105 60.5435 64.151 61.1918 67.9568C61.1918 67.9568 60.0633 76.9617 64.7621 79.2829C69.4609 81.6042 73.8093 83.5126 73.8093 83.5126C73.8093 83.5126 81.1585 84.2978 82.0741 84.6251C82.4202 84.7492 83.0457 84.1095 83.6583 83.2302L84.0065 83.5532L89.995 89.1286C89.995 89.1286 97.7224 90.7524 99.8719 87.6909C101.688 85.115 89.5952 81.3839 85.7154 80.2671Z" fill="black"/>
<path d="M61.7205 25.333C61.5101 25.3739 61.3085 25.4514 61.1251 25.5619C60.9102 25.7395 60.9102 26.0433 60.8564 26.3086C60.7933 26.6776 60.6462 27.0274 60.4265 27.3312C60.6711 27.3491 60.9165 27.3087 61.1423 27.2136C61.1055 27.5064 61.0333 27.7937 60.9273 28.0693C61.0613 28.0727 61.1934 28.0376 61.3077 27.9681C61.4221 27.8987 61.5139 27.7979 61.5722 27.6778C61.6859 27.4367 61.7759 27.1852 61.8409 26.9269C61.8611 26.8496 61.8961 26.7769 61.9441 26.7129C62.1418 26.4797 62.5094 26.5846 62.8146 26.6145C63.0686 26.6358 63.3237 26.5891 63.5535 26.4793C63.7833 26.3695 63.9794 26.2005 64.1215 25.9898C64.4461 25.4999 64.4654 24.2462 63.6916 24.1135C62.8834 23.9809 62.3804 25.0891 61.7205 25.333Z" fill="#965D7B"/>
<g opacity="0.1">
<path opacity="0.1" d="M61.1035 25.8251C61.1229 25.7203 61.1358 25.6112 61.1594 25.5063C60.9552 25.6839 60.9445 25.9856 60.8907 26.253C60.8637 26.4073 60.8212 26.5585 60.7639 26.7044C60.9332 26.4359 61.0485 26.1373 61.1035 25.8251Z" fill="black"/>
<path opacity="0.1" d="M61.1724 27.5921C61.2794 27.3168 61.3516 27.0294 61.3873 26.7363C61.1721 26.8265 60.9391 26.8667 60.7059 26.854C60.6381 27.0045 60.5553 27.1478 60.4587 27.2819C60.7025 27.3007 60.9472 27.261 61.1724 27.1664C61.1367 27.4594 61.0645 27.7468 60.9574 28.0221C61.0913 28.0252 61.2233 27.99 61.3376 27.9206C61.4519 27.8512 61.5438 27.7505 61.6023 27.6306C61.6558 27.5334 61.699 27.4308 61.7312 27.3247C61.6682 27.4124 61.5839 27.4829 61.4862 27.5296C61.3885 27.5764 61.2806 27.5979 61.1724 27.5921Z" fill="black"/>
<path opacity="0.1" d="M63.0597 26.1374C62.7545 26.1075 62.3847 26.0027 62.187 26.2359C62.1399 26.3004 62.105 26.3729 62.0838 26.4498C62.0645 26.5054 62.0473 26.5632 62.0322 26.621C62.2364 26.4605 62.5675 26.5461 62.8447 26.5739C63.0987 26.5945 63.3536 26.5475 63.5832 26.4378C63.8129 26.328 64.0091 26.1593 64.1516 25.9492C64.2168 25.8453 64.2654 25.732 64.2956 25.6133C64.1484 25.7946 63.9588 25.9372 63.7433 26.0286C63.5278 26.12 63.2931 26.1574 63.0597 26.1374Z" fill="black"/>
</g>
<path d="M68.1906 43.0024L71.4686 46.9262L71.0409 50.8862L67.0793 44.714L68.1906 43.0024Z" fill="#DCE6F2"/>
<path opacity="0.1" d="M71.4665 46.9262L71.0645 50.6509L71.0387 50.8862L67.4641 45.3152L67.0793 44.714L67.1911 44.5407L68.1885 43.0024L68.4099 43.2677L71.4665 46.9262Z" fill="black"/>
<path d="M73.1688 37.6901C72.0597 38.0067 71 39.0935 70.0778 40.4136C69.4546 41.3243 68.8971 42.2781 68.4098 43.2676C68.1067 43.8709 67.8402 44.4507 67.6188 44.9556L67.464 45.315C67.09 46.1943 66.8815 46.7827 66.8815 46.7827C66.8815 46.7827 58.391 40.4285 59.7345 40.0007C60.1859 39.8573 60.7791 38.8946 61.3659 37.6815L61.439 37.5275C61.8109 36.7487 62.1763 35.8801 62.5009 35.0629C63.1651 33.3834 63.6573 31.9243 63.6573 31.9243C63.6573 31.9243 76.5543 36.7273 73.1688 37.6901Z" fill="#EFB7B9"/>
<path d="M78.248 31.5674C78.248 31.5674 80.2084 35.0974 82.8415 34.6161C85.4746 34.1347 84.3913 32.7205 84.3913 32.7205L78.248 31.5674Z" fill="#444053"/>
<path d="M74.4498 153.761C72.713 154.55 68.7859 153.761 68.7859 153.761L67.1308 153.658C64.9813 153.521 61.383 153.29 60.1105 153.187C58.2534 153.035 58.709 152.278 58.709 152.278V147.702L67.7197 145.43C67.7197 145.43 71.2815 146.643 72.2573 147.702C73.1838 148.712 73.7254 147.935 75.3784 148.226C75.4601 148.241 75.546 148.258 75.6363 148.279C77.2055 148.637 78.0567 148.778 78.5596 150.072C78.6607 150.344 78.7419 150.623 78.8025 150.907C79.2668 152.99 76.1844 152.975 74.4498 153.761Z" fill="#A36468"/>
<path opacity="0.1" d="M78.5596 150.072C78.2367 150.273 77.8973 150.446 77.5451 150.59C76.3628 151.127 75.2387 151.782 74.0435 152.289C72.8484 152.796 71.5609 153.157 70.2669 153.061C69.5898 153.012 68.8977 152.847 68.2507 153.04C67.8505 153.194 67.4737 153.402 67.1308 153.658C64.9813 153.521 61.383 153.29 60.1105 153.187C58.2534 153.036 58.709 152.278 58.709 152.278V151.743C58.7757 151.743 58.8509 151.724 58.9369 151.718C59.3817 151.711 59.8247 151.776 60.2481 151.912C61.181 152.165 62.1095 152.413 63.0424 152.661C63.1192 152.373 63.254 152.103 63.4388 151.869C63.6235 151.634 63.8544 151.439 64.1172 151.296C64.6496 151.015 65.2472 150.878 65.8497 150.9C67.2963 150.92 68.6655 151.602 70.11 151.671C70.5138 151.708 70.9204 151.64 71.29 151.474C71.4878 151.375 71.6619 151.232 71.8554 151.123C72.165 150.974 72.4921 150.864 72.8291 150.796C73.7763 150.561 74.7063 150.262 75.6127 149.901C75.8706 149.801 76.1715 149.619 76.1371 149.345C76.092 148.981 75.5181 148.939 75.3676 148.605C75.3411 148.545 75.3288 148.479 75.3318 148.413C75.3348 148.348 75.3529 148.284 75.3848 148.226C75.4665 148.241 75.5525 148.258 75.6428 148.28C77.2055 148.637 78.0566 148.778 78.5596 150.072Z" fill="black"/>
<path d="M72.6141 163.773C70.5721 164.702 65.9507 163.773 65.9507 163.773L64.0054 163.66C61.4862 163.499 57.2431 163.232 55.7449 163.106C53.5588 162.926 54.0962 162.036 54.0962 162.036V156.643L64.6997 153.968C64.6997 153.968 68.8912 155.395 70.039 156.643C71.1288 157.83 71.7586 156.916 73.7125 157.259C73.8092 157.276 73.9103 157.297 74.0156 157.321C75.862 157.749 76.8637 157.909 77.4548 159.432C77.5745 159.752 77.67 160.08 77.7407 160.414C78.2737 162.866 74.6561 162.847 72.6141 163.773Z" fill="#A36468"/>
<path opacity="0.1" d="M77.4505 159.432C77.0707 159.669 76.6716 159.873 76.2575 160.042C74.8668 160.673 73.5427 161.444 72.1369 162.04C70.7312 162.637 69.2158 163.061 67.6918 162.95C66.8965 162.892 66.0818 162.693 65.3273 162.924C64.8546 163.107 64.4097 163.355 64.0054 163.66C61.4862 163.5 57.2431 163.232 55.7449 163.106C53.5588 162.926 54.0962 162.036 54.0962 162.036V161.407C54.1852 161.393 54.2749 161.383 54.3649 161.377C54.8886 161.368 55.4101 161.445 55.9082 161.606L59.1948 162.488C59.2864 162.148 59.4466 161.83 59.6658 161.554C59.885 161.277 60.1584 161.048 60.4695 160.881C61.096 160.548 61.7999 160.388 62.5093 160.415C64.2117 160.438 65.8217 161.24 67.522 161.322C67.9955 161.365 68.4721 161.286 68.9062 161.093C69.1405 160.975 69.3361 160.806 69.5726 160.68C69.9361 160.503 70.3212 160.373 70.7183 160.295C71.8268 160.016 72.9154 159.665 73.9769 159.242C74.28 159.122 74.6346 158.908 74.5938 158.587C74.5401 158.16 73.8651 158.108 73.6867 157.715C73.6566 157.643 73.643 157.567 73.6467 157.49C73.6504 157.413 73.6714 157.337 73.7082 157.27C73.8049 157.287 73.906 157.308 74.0113 157.332C75.8577 157.742 76.8594 157.909 77.4505 159.432Z" fill="black"/>
<path d="M67.9929 126.763L67.419 140.205C67.419 140.205 66.5592 142.95 67.0256 143.735C67.492 144.52 68.2788 145.303 67.9929 145.768C67.707 146.232 64.2678 151.251 63.1565 149.326C62.0452 147.4 60.949 139.056 60.949 139.056L61.9743 128.751L67.9929 126.763Z" fill="#444053"/>
<path d="M70.4818 93.2725L72.0767 95.3948V113.854C72.0767 113.854 72.5432 118.774 72.0767 119.791C71.6103 120.807 69.2459 122.839 69.2459 122.839L67.2576 112.677L67.6875 101.926L70.4818 93.2725Z" fill="#444053"/>
<path opacity="0.1" d="M67.9929 126.763L67.419 140.205C67.419 140.205 66.5592 142.95 67.0256 143.735C67.492 144.52 68.2788 145.303 67.9929 145.768C67.707 146.232 64.2678 151.251 63.1565 149.326C62.0452 147.4 60.949 139.056 60.949 139.056L61.9743 128.751L67.9929 126.763Z" fill="black"/>
<path opacity="0.1" d="M70.4818 93.2725L72.0767 95.3948V113.854C72.0767 113.854 72.5432 118.774 72.0767 119.791C71.6103 120.807 69.2459 122.839 69.2459 122.839L67.2576 112.677L67.6875 101.926L70.4818 93.2725Z" fill="black"/>
<path d="M72.0768 85.3998V95.3845L70.2863 103.157C70.2863 103.157 69.7123 121.913 70.2132 124.194C70.714 126.475 68.4936 128.616 68.4936 128.616C68.4936 128.616 67.2039 128.76 67.2039 129.757C67.2039 130.754 65.0544 133.608 65.0544 133.608L65.1253 139.17C65.1253 139.17 66.0582 149.583 64.6245 151.579C63.1908 153.575 65.1253 153.862 65.1253 153.862C63.3348 159.709 54.7368 158.354 53.9609 157.713C53.1849 157.071 53.9609 144.448 53.9609 144.448C53.9609 144.448 55.8825 125.193 57.3871 124.337C58.8918 123.482 57.4602 122.412 57.9611 121.128C58.4619 119.845 57.4602 116.351 57.4602 116.351C57.4602 116.351 57.0303 112.213 55.9556 110.217C54.8808 108.221 55.0227 102.729 55.0227 102.729C55.0227 102.729 52.0134 98.7348 51.1192 97.1666C50.225 95.5984 49.649 91.5335 49.8639 88.4656C50.0101 86.3925 51.1042 83.3737 51.7985 81.6365C52.1316 80.8043 52.3724 80.2651 52.3724 80.2651L52.5766 80.3186L64.3171 83.378L72.0768 85.3998Z" fill="#444053"/>
<path opacity="0.1" d="M73.1689 37.6904C72.0597 38.007 71 39.0939 70.0779 40.4139H69.8372C68.4855 40.4149 67.1576 40.0607 65.9876 39.3871C64.8175 38.7135 63.8469 37.7445 63.1737 36.5779C62.8924 36.0945 62.666 35.5815 62.4988 35.0482C63.163 33.3688 63.6552 31.9097 63.6552 31.9097C63.6552 31.9097 76.5543 36.7277 73.1689 37.6904Z" fill="black"/>
<path d="M77.5215 32.3417C77.5234 33.5123 77.2553 34.6678 76.7379 35.719C76.2204 36.7702 75.4675 37.6892 74.537 38.4052C73.6065 39.1212 72.5233 39.615 71.3709 39.8487C70.2184 40.0823 69.0274 40.0496 67.8897 39.7529C66.752 39.4563 65.6978 38.9037 64.8085 38.1376C63.9192 37.3716 63.2183 36.4126 62.76 35.3345C62.3017 34.2565 62.0982 33.0881 62.165 31.9193C62.2319 30.7506 62.5674 29.6128 63.1456 28.5934C63.3786 28.1793 63.6507 27.7881 63.9582 27.4253C64.465 26.8243 65.0608 26.3034 65.725 25.8806C66.847 25.171 68.1347 24.7632 69.4623 24.6971C70.7899 24.6309 72.1121 24.9087 73.2996 25.5032C74.4872 26.0978 75.4994 26.9887 76.2375 28.0891C76.9756 29.1895 77.4143 30.4616 77.5107 31.7812C77.515 31.9695 77.5215 32.1556 77.5215 32.3417Z" fill="#EFB7B9"/>
<path opacity="0.1" d="M71.0644 50.6511L71.0386 50.8864L67.464 45.3239C67.09 46.2032 66.8815 46.7916 66.8815 46.7916C66.8815 46.7916 58.391 40.4289 59.7345 40.001C60.1859 39.8577 60.7791 38.8949 61.3659 37.6819L61.439 37.5278C62.0624 39.3763 65.6843 43.0711 67.1911 44.5516C67.3652 44.7227 67.5092 44.8639 67.6209 44.9666L67.8509 45.1806L67.9713 45.3004C68.5194 45.863 70.8323 48.3448 71.0644 50.6511Z" fill="black"/>
<path d="M73.7361 69.5248L73.3449 82.0555L73.2762 84.2869C73.2762 84.2869 68.6418 83.859 64.3171 83.3883C60.8349 83.0096 57.5526 82.601 57.0475 82.3614C56.4026 82.0597 55.0205 81.8265 53.9307 81.6789C53.0881 81.5655 52.4261 81.5056 52.4261 81.5056C52.4261 81.5056 52.1789 81.5784 51.7984 81.6468C50.9687 81.7966 49.5113 81.9185 48.6623 81.1847C47.5768 80.2455 50.4292 76.8331 51.1407 76.0137L51.2976 75.8361L51.0289 73.3651L50.3303 66.9575C50.3303 66.9575 49.9004 63.267 49.2556 61.288C49.0832 60.7254 48.9588 60.1492 48.8837 59.5658C48.6441 57.7583 48.7668 55.9215 49.2448 54.1616C49.449 53.4137 49.5786 52.6477 49.6317 51.8745C49.7392 49.8955 55.8115 42.2471 57.3162 41.5518C57.993 41.2376 58.5377 40.697 58.8552 40.0242C58.96 39.8127 59.0387 39.5892 59.0895 39.3588C59.7343 36.5776 61.3658 37.6815 61.3658 37.6815C61.7592 39.8573 67.8487 45.6167 67.8487 45.6167L67.9691 45.7365C68.5731 46.3526 71.2642 49.2451 71.0729 51.7141C71.0347 52.633 71.1726 53.5507 71.4792 54.4183C72.7178 58.3002 73.4299 62.3295 73.5964 66.3991L73.7361 69.5248Z" fill="#DCE6F2"/>
<path opacity="0.1" d="M65.1082 54.6455C65.1082 54.6455 63.6035 58.2825 62.475 58.8709C61.3466 59.4592 65.6456 60.1117 65.1082 54.6455Z" fill="black"/>
<path opacity="0.1" d="M66.2365 61.438C66.2365 61.438 62.7974 61.8659 62.7974 62.5077C62.7974 63.1495 66.2365 61.438 66.2365 61.438Z" fill="black"/>
<path opacity="0.1" d="M69.8371 65.6099C69.8371 65.6099 64.8395 76.2 63.4424 76.521C62.0452 76.8419 69.8371 65.6099 69.8371 65.6099Z" fill="black"/>
<path opacity="0.1" d="M67.7543 46.154L63.6208 47.9425L58.6318 40.4417C58.7367 40.2301 58.8153 40.0067 58.8661 39.7763C59.511 36.9951 61.1424 38.099 61.1424 38.099C61.5358 40.2748 67.6253 46.0342 67.6253 46.0342L67.7543 46.154Z" fill="black"/>
<path d="M67.9691 45.7262L63.8356 47.5148L58.8467 40.0139C58.9515 39.8024 59.0302 39.579 59.081 39.3486C59.7258 36.5673 61.3573 37.6713 61.3573 37.6713C61.7506 39.8471 67.8402 45.6064 67.8402 45.6064L67.9691 45.7262Z" fill="#DCE6F2"/>
<path opacity="0.1" d="M73.2763 84.2875C73.2763 84.2875 68.642 83.8596 64.3172 83.3889L72.0769 85.4107V87.7641C71.7373 88.07 71.4428 88.2283 71.2515 88.147C70.3573 87.7726 63.0598 86.5959 63.0598 86.5959C63.0598 86.5959 58.821 84.4565 54.2468 81.8892C54.1358 81.828 54.0282 81.7608 53.9244 81.6881C53.3911 81.3277 52.9315 80.8695 52.5702 80.3381C51.7255 79.1208 51.3128 77.5568 51.1344 76.0229C51.0341 75.1438 50.9967 74.2587 51.0226 73.3743C51.0448 72.3714 51.1367 71.3714 51.2977 70.3812C50.8554 66.5461 50.64 62.6885 50.6529 58.8283C50.7066 52.8379 56.349 50.6984 56.349 50.6984C66.7203 49.7892 63.5047 66.4767 63.5047 66.4767C63.5047 66.4767 62.905 71.1835 62.7416 71.6649C62.5783 72.1462 61.9915 72.9485 62.071 74.0717C62.1505 75.1949 64.1324 76.5385 64.1324 76.5385C64.1324 76.5385 66.0669 77.4413 66.8644 78.7785C67.4447 79.7647 71.2149 81.1019 73.3451 82.0561L73.2763 84.2875Z" fill="black"/>
<path opacity="0.1" d="M76.7499 27.5921C76.7538 27.9445 76.6805 28.2935 76.5349 28.6147C76.4247 28.8769 76.2969 29.1313 76.1523 29.3764C75.9261 29.8271 75.605 30.224 75.2108 30.5402C74.7143 30.8932 74.0867 30.9916 73.4912 31.135C72.8958 31.2783 72.2768 31.5072 71.9372 32.0121C71.7531 32.3367 71.63 32.692 71.5739 33.0605C71.5169 33.4286 71.3692 33.7771 71.144 34.0745C71.0267 34.2198 70.8643 34.3221 70.6822 34.3655C70.5001 34.4089 70.3087 34.3908 70.138 34.3142C69.9583 34.1935 69.8219 34.0189 69.749 33.8157C69.5039 33.2658 69.4416 32.6561 69.3427 32.0635C69.2438 31.4709 69.1041 30.8611 68.7387 30.384C68.3733 29.9069 67.7263 29.5924 67.1524 29.7786C66.9603 29.8522 66.7851 29.9636 66.6374 30.1063C66.4896 30.2489 66.3724 30.4198 66.2926 30.6087C66.1337 30.9868 66.0247 31.3837 65.968 31.7896C65.7015 33.2416 65.3869 34.685 65.0244 36.1198C65.0133 36.1787 64.9891 36.2342 64.9534 36.2824C64.8963 36.3391 64.8192 36.3714 64.7385 36.3723C64.257 36.4365 63.7949 36.1006 63.3091 36.137C63.259 36.1403 63.2094 36.1482 63.1608 36.1605C62.3754 34.8019 62.0285 33.2358 62.1673 31.6744C62.3061 30.113 62.9238 28.6319 63.9367 27.4316L63.9754 27.4209C64.2986 27.3067 64.5922 27.1226 64.8352 26.8818C65.1455 26.5727 65.4329 26.2417 65.695 25.8912L65.867 25.6773C66.3611 25.0849 66.9238 24.5527 67.5436 24.092C67.7128 23.954 67.9068 23.8495 68.1154 23.7839C68.2938 23.7493 68.4767 23.7435 68.657 23.7668C69.3994 23.8555 70.1477 23.8834 70.8946 23.8502C71.4151 23.7688 71.9396 23.7159 72.4659 23.6919C73.8266 23.7304 74.9873 24.6867 75.8471 25.7351C76.3092 26.272 76.7219 26.8903 76.7499 27.5921Z" fill="black"/>
<path d="M62.1419 28.7966C61.8431 29.2844 61.3036 29.616 61.1015 30.1508C60.8049 30.9275 61.3057 31.8945 60.8457 32.5877C60.6931 32.8209 60.4416 32.9941 60.3556 33.2616C60.2095 33.713 60.6093 34.1944 60.5061 34.6586C60.4029 35.1229 59.7882 35.5144 59.9515 35.968C60.0481 36.1658 60.2174 36.319 60.4244 36.3958C60.7501 36.5818 61.125 36.6646 61.4992 36.6333C62.086 36.537 62.5223 35.9637 63.1177 35.9209C63.6014 35.8867 64.0635 36.2204 64.545 36.1584C64.6257 36.1556 64.7024 36.1227 64.7599 36.0664C64.7965 36.0187 64.8208 35.9629 64.8309 35.9038C65.192 34.4704 65.5072 33.0269 65.7766 31.5736C65.8315 31.1675 65.94 30.7704 66.0991 30.3926C66.1795 30.2041 66.297 30.0336 66.4446 29.891C66.5923 29.7484 66.7671 29.6367 66.9589 29.5625C67.5328 29.3785 68.1776 29.6909 68.5452 30.168C68.9128 30.645 69.0525 31.2548 69.1514 31.8474C69.2502 32.44 69.3126 33.0498 69.5555 33.5996C69.6293 33.8035 69.7663 33.9788 69.9467 34.1002C70.2691 34.2864 70.7033 34.1387 70.9505 33.8606C71.1769 33.563 71.3248 33.2136 71.3804 32.8444C71.4365 32.4766 71.5596 32.122 71.7436 31.7982C72.0833 31.2933 72.7045 31.0644 73.2977 30.921C73.891 30.7777 74.5165 30.6771 75.0173 30.3241C75.4109 30.0083 75.732 29.6122 75.9588 29.1624C76.2769 28.6104 76.5736 28.0114 76.5478 27.376C76.5198 26.6828 76.1071 26.0645 75.6665 25.5254C74.8067 24.4771 73.6438 23.5207 72.2832 23.4844C71.7567 23.5063 71.2321 23.5591 70.7119 23.6427C69.9649 23.6761 69.2165 23.6475 68.4743 23.5571C68.2938 23.5356 68.1111 23.5421 67.9326 23.5764C67.7238 23.6398 67.5301 23.7446 67.363 23.8844C66.7426 24.3444 66.1791 24.8759 65.6842 25.4676C65.3651 25.8888 65.019 26.2889 64.6482 26.6657C64.4051 26.9069 64.1115 27.0917 63.7884 27.207C63.5734 27.2669 63.3585 27.2241 63.1543 27.2904C62.5202 27.4894 62.4363 28.3131 62.1419 28.7966Z" fill="#965D7B"/>
<path opacity="0.1" d="M82.8415 34.6139C81.1219 34.9284 79.6968 33.5442 78.9079 32.5344C78.6657 32.2277 78.4452 31.9046 78.248 31.5674L84.1506 32.6756L84.3891 32.7205C84.3891 32.7205 85.4746 34.1347 82.8415 34.6139Z" fill="black"/>
<g opacity="0.1">
<path opacity="0.1" d="M60.5062 34.0471C60.5302 33.7673 60.4875 33.4858 60.3815 33.2256C60.3815 33.247 60.3622 33.2684 60.3557 33.2898C60.2633 33.5765 60.388 33.8738 60.4675 34.1712C60.4846 34.1313 60.4975 34.0897 60.5062 34.0471Z" fill="black"/>
<path opacity="0.1" d="M61.0176 30.5449C60.9954 30.8408 61.0012 31.138 61.0347 31.4328C61.0568 31.1369 61.051 30.8397 61.0176 30.5449Z" fill="black"/>
<path opacity="0.1" d="M75.9459 28.5445C75.7197 28.9952 75.3986 29.3922 75.0044 29.7083C74.5079 30.0613 73.8824 30.1598 73.2848 30.3031C72.6873 30.4464 72.0704 30.6754 71.7307 31.1803C71.547 31.505 71.4239 31.8602 71.3675 32.2286C71.3115 32.5977 71.1637 32.947 70.9376 33.2448C70.6904 33.5229 70.2562 33.6727 69.9338 33.4844C69.7533 33.363 69.6164 33.1877 69.5425 32.9838C69.2997 32.434 69.2352 31.8264 69.1384 31.2316C69.0417 30.6368 68.8977 30.0292 68.5323 29.5522C68.1669 29.0751 67.5199 28.7606 66.946 28.9467C66.754 29.0206 66.579 29.1322 66.4313 29.2748C66.2836 29.4174 66.1662 29.5881 66.0862 29.7768C65.927 30.1546 65.8186 30.5517 65.7637 30.9578C65.4958 32.4111 65.1805 33.8545 64.8179 35.288C64.8079 35.3471 64.7835 35.4029 64.747 35.4506C64.6895 35.5069 64.6128 35.5398 64.5321 35.5426C64.0506 35.6046 63.5884 35.2709 63.1048 35.3051C62.5094 35.3479 62.073 35.9212 61.4862 36.0154C61.1119 36.0488 60.7364 35.9658 60.4115 35.7779C60.2621 35.7139 60.128 35.6191 60.0181 35.4998C59.9678 35.5715 59.9345 35.6536 59.9208 35.7399C59.907 35.8263 59.9131 35.9146 59.9386 35.9983C60.0333 36.1974 60.2033 36.3513 60.4115 36.4261C60.7364 36.6141 61.1119 36.697 61.4862 36.6636C62.073 36.5695 62.5094 35.9961 63.1048 35.9533C63.5884 35.9191 64.0506 36.2529 64.5321 36.1908C64.6128 36.188 64.6895 36.1552 64.747 36.0988C64.7835 36.0511 64.8079 35.9953 64.8179 35.9362C65.1791 34.5099 65.4943 33.0665 65.7637 31.606C65.8186 31.2 65.927 30.8029 66.0862 30.425C66.1662 30.2364 66.2836 30.0657 66.4313 29.9231C66.579 29.7805 66.754 29.6689 66.946 29.5949C67.5199 29.4088 68.1647 29.7233 68.5323 30.2004C68.8998 30.6775 69.0396 31.2872 69.1384 31.8799C69.2373 32.4725 69.2997 33.0822 69.5425 33.632C69.6164 33.836 69.7533 34.0113 69.9338 34.1327C70.2562 34.3188 70.6904 34.1712 70.9376 33.8931C71.1637 33.5953 71.3115 33.2459 71.3675 32.8768C71.4239 32.5084 71.547 32.1532 71.7307 31.8285C72.0704 31.3236 72.6916 31.0968 73.2848 30.9513C73.8781 30.8059 74.5036 30.7096 75.0044 30.3566C75.3986 30.0404 75.7197 29.6435 75.9459 29.1927C76.264 28.6429 76.5607 28.0439 76.5349 27.4084C76.5306 27.3267 76.522 27.2453 76.5091 27.1646C76.4054 27.6542 76.2146 28.1215 75.9459 28.5445Z" fill="black"/>
</g>
<path opacity="0.1" d="M76.5434 28.6081C77.0946 29.5836 77.4213 30.6687 77.4999 31.7852C75.5847 30.7155 73.7834 29.5409 72.8742 29.1323C71.29 28.4199 65.366 28.5268 63.1392 28.5932C63.3721 28.179 63.6442 27.7878 63.9517 27.425C64.4605 26.8235 65.0585 26.3026 65.725 25.8804C66.6077 25.3228 67.5953 24.9502 68.6276 24.7855C69.6598 24.6207 70.715 24.6672 71.7285 24.9222C72.7421 25.1771 73.6928 25.635 74.5225 26.2681C75.3522 26.9011 76.0435 27.6959 76.5541 28.6039L76.5434 28.6081Z" fill="black"/>
<path opacity="0.1" d="M83.3789 33.7068C82.345 34.0235 80.6576 33.4116 78.9079 32.5344C78.6657 32.2277 78.4452 31.9046 78.248 31.5674L84.1505 32.6756C84.5417 32.9409 84.6406 33.3196 83.3789 33.7068Z" fill="black"/>
<path d="M70.2948 21.1909C70.2948 21.1909 64.6524 20.8699 63.0661 23.9186L62.8103 26.6207L62.3804 26.5737L62.2944 28.4114C62.2944 28.4114 70.9182 28.037 72.8807 28.9185C74.8432 29.7999 80.9413 34.2414 83.3853 33.4926C85.8292 32.7438 83.1703 32.0485 83.1703 32.0485C83.1703 32.0485 79.8064 30.63 79.8064 29.5175C79.8064 28.405 78.9724 22.528 70.2948 21.1909Z" fill="#444053"/>
<path opacity="0.1" d="M59.4121 121.359C59.4121 121.359 63.0125 124.836 64.5709 124.569C64.5709 124.569 60.1644 124.194 59.4121 121.359Z" fill="black"/>
<path opacity="0.1" d="M58.6597 122.97C58.6597 122.97 58.9821 124.759 59.8419 124.583C60.7017 124.408 58.6597 122.97 58.6597 122.97Z" fill="black"/>
<path opacity="0.1" d="M64.3021 152.862C64.3021 152.862 59.1906 156.82 60.0525 156.927C60.9145 157.034 64.3021 152.862 64.3021 152.862Z" fill="black"/>
<path d="M71.1396 74.3086L87.6908 71.6279V87.2244L71.9651 86.405L71.1396 74.3086Z" fill="#FFD8A1"/>
<path opacity="0.05" d="M71.1396 74.3086L87.6908 71.6279V87.2244L71.9651 86.405L71.1396 74.3086Z" fill="#FFD8A1"/>
<path d="M87.6907 71.6279L107.539 73.1063L106.441 86.6788L87.6907 87.2244V71.6279Z" fill="#FFD8A1"/>
<path opacity="0.1" d="M87.6907 71.6279L107.539 73.1063L106.441 86.6788L87.6907 87.2244V71.6279Z" fill="#FFD8A1"/>
<path d="M93.7931 66.8682L87.6907 71.6284L107.539 73.1067L110.783 68.2353L93.7931 66.8682Z" fill="#FFD8A1"/>
<path d="M65.147 69.1099L80.0473 67.3042L87.6909 71.628L71.1398 74.3087L65.147 69.1099Z" fill="#FFD8A1"/>
<path d="M91.3191 75.6783V97.002L83.5659 96.2104L80.1933 95.8681L79.1659 95.7612L75.7955 95.4167L71.1396 94.9418V74.3091L87.6886 75.4301L91.3191 75.6783Z" fill="#FFD8A1"/>
<path d="M107.539 73.1064V93.9017L101.325 95.0891L98.3028 95.6667L91.3191 97.0017V75.678L107.539 73.1064Z" fill="#FFD8A1"/>
<path opacity="0.05" d="M107.539 73.1064V93.9017L101.325 95.0891L98.3028 95.6667L91.3191 97.0017V75.678L107.539 73.1064Z" fill="#FFD8A1"/>
<path d="M65.147 78.7976L71.1398 74.3091L91.3192 75.6783L88.3486 80.6589L65.147 78.7976Z" fill="#FFD8A1"/>
<path opacity="0.1" d="M65.147 78.7976L71.1398 74.3091L91.3192 75.6783L88.3486 80.6589L65.147 78.7976Z" fill="#FFD8A1"/>
<path d="M107.539 73.1064L91.3191 75.678L96.5982 80.3848L113.973 77.4837L107.539 73.1064Z" fill="#FFD8A1"/>
<path opacity="0.1" d="M107.539 73.1064L91.3191 75.678L96.5982 80.3848L113.973 77.4837L107.539 73.1064Z" fill="#FFD8A1"/>
<path opacity="0.1" d="M101.325 95.089L98.3027 95.6666V91.223L101.134 90.5127L101.325 95.089Z" fill="#FFD8A1"/>
<path opacity="0.1" d="M83.5659 93.2705V96.2101L80.1934 95.8678V93.2705H83.5659Z" fill="#FFD8A1"/>
<path opacity="0.1" d="M79.1658 94.1968V95.7607L75.7954 95.4163V94.1968H79.1658Z" fill="#FFD8A1"/>
<path opacity="0.1" d="M89.29 91.7111C86.9793 94.6528 79.3486 92.6203 79.3486 92.6203L73.6782 86.7326L72.9087 85.9346L74.4133 83.1533C74.4133 83.1533 74.8432 83.2945 75.5612 83.5427C79.3615 84.8649 91.2353 89.2357 89.29 91.7111Z" fill="black"/>
<path d="M89.0751 91.2828C86.7644 94.2245 79.1337 92.1921 79.1337 92.1921L73.4634 86.3044L72.6938 85.5064L74.1985 82.7251C74.1985 82.7251 74.6284 82.8663 75.3463 83.1145C79.1466 84.4366 91.0204 88.8075 89.0751 91.2828Z" fill="#EFB7B9"/>
<path opacity="0.1" d="M75.3375 83.1145C75.0237 84.013 74.2262 85.3438 73.4546 86.3044L72.6851 85.5064L74.1897 82.7251C74.1897 82.7251 74.6218 82.8663 75.3375 83.1145Z" fill="black"/>
<path d="M56.5639 49.8423C56.5639 49.8423 50.9215 51.9818 50.8677 57.9722C50.8549 61.8324 51.0702 65.69 51.5126 69.5251C51.5126 69.5251 49.9005 78.4572 54.4681 81.0245C59.0358 83.5918 63.2811 85.7313 63.2811 85.7313C63.2811 85.7313 70.5786 86.908 71.4749 87.2824C72.3713 87.6568 75.4859 82.843 75.0022 82.0407C74.5186 81.2385 67.8745 79.2595 67.0857 77.9223C66.2968 76.5852 64.3537 75.6845 64.3537 75.6845C64.3537 75.6845 62.3718 74.3388 62.2923 73.2156C62.2128 72.0924 62.7974 71.2901 62.9629 70.8087C63.1284 70.3274 63.7281 65.6206 63.7281 65.6206C63.7281 65.6206 66.9352 48.9224 56.5639 49.8423Z" fill="#DCE6F2"/>
<path opacity="0.1" d="M59.1433 69.6748C59.1433 69.6748 51.5126 70.5306 52.1037 73.2049C52.1037 73.2049 55.0034 70.507 59.1433 69.6748Z" fill="black"/>
<path opacity="0.1" d="M59.1434 70.7446C59.1434 70.7446 54.8122 73.9003 55.6075 74.1142C56.4028 74.3282 59.1434 70.7446 59.1434 70.7446Z" fill="black"/>
<path opacity="0.1" d="M61.078 72.0283C61.078 72.0283 59.842 74.2405 60.5406 74.125C61.2392 74.0094 61.078 72.0283 61.078 72.0283Z" fill="black"/>
<path d="M140.528 24.0452C140.528 24.0452 132.36 23.5553 133.314 29.259C133.314 29.259 133.123 30.2667 134.04 30.7245C134.04 30.7245 134.055 30.2966 134.879 30.4442C135.172 30.4933 135.47 30.5077 135.766 30.487C136.168 30.4603 136.55 30.3033 136.854 30.0399C136.854 30.0399 139.152 29.0964 140.046 25.3567C140.046 25.3567 140.708 24.5394 140.691 24.3297L139.311 24.9181C139.311 24.9181 139.782 25.9086 139.41 26.7323C139.41 26.7323 139.367 24.9545 139.1 24.9951C139.047 24.9951 138.385 25.3396 138.385 25.3396C138.385 25.3396 139.195 27.0639 138.582 28.3198C138.582 28.3198 138.814 26.1932 138.131 25.4636L137.159 26.0284C137.159 26.0284 138.107 27.8106 137.465 29.2654C137.465 29.2654 137.63 27.034 136.955 26.1654L136.074 26.8479C136.074 26.8479 136.966 28.6065 136.422 29.8131C136.422 29.8131 136.351 27.2158 135.883 27.019C135.883 27.019 135.113 27.6951 134.997 27.9732C134.997 27.9732 135.605 29.2568 135.227 29.9222C135.227 29.9222 134.995 28.1914 134.797 28.1829C134.797 28.1829 134.03 29.3296 133.95 30.1083C133.987 29.3823 134.215 28.6787 134.61 28.0673C134.168 28.1506 133.76 28.3611 133.436 28.6728C133.436 28.6728 133.555 27.8619 134.799 27.7913C134.799 27.7913 135.444 26.9206 135.603 26.8671C135.603 26.8671 134.365 26.7644 133.615 27.096C133.615 27.096 134.275 26.3322 135.831 26.6681L136.691 25.9621C136.691 25.9621 135.061 25.7482 134.369 25.9857C134.369 25.9857 135.165 25.3096 136.925 25.8017L137.871 25.239C137.871 25.239 136.482 24.9395 135.655 25.0486C135.655 25.0486 136.527 24.5801 138.148 25.0871L138.825 24.7854C138.825 24.7854 137.806 24.5865 137.51 24.5544C137.213 24.5223 137.196 24.441 137.196 24.441C137.84 24.3342 138.502 24.4083 139.107 24.6549C139.107 24.6549 140.558 24.1351 140.528 24.0452Z" fill="#FFD8A1"/>
<path d="M165.345 52.5721C165.345 52.5721 157.177 52.0821 158.132 57.7858C158.132 57.7858 157.94 58.7935 158.858 59.2514C158.858 59.2514 158.873 58.8235 159.699 58.9711C159.992 59.0202 160.29 59.0346 160.586 59.0139C160.984 58.9852 161.361 58.8291 161.661 58.5689C161.661 58.5689 163.961 57.6233 164.855 53.8835C164.855 53.8835 165.515 53.0684 165.489 52.8587L164.109 53.4449C164.109 53.4449 164.58 54.4355 164.211 55.2592C164.211 55.2592 164.165 53.4813 163.901 53.522C163.847 53.522 163.183 53.8664 163.183 53.8664C163.183 53.8664 163.996 55.5929 163.383 56.8466C163.383 56.8466 163.615 54.72 162.929 53.9905L161.969 54.5489C161.969 54.5489 162.917 56.331 162.274 57.7858C162.274 57.7858 162.439 55.5544 161.764 54.6858L160.885 55.3704C160.885 55.3704 161.775 57.1269 161.233 58.3335C161.233 58.3335 161.163 55.7363 160.694 55.5394C160.694 55.5394 159.924 56.2155 159.806 56.4936C159.806 56.4936 160.417 57.7773 160.038 58.4427C160.038 58.4427 159.806 56.7119 159.608 56.7033C159.608 56.7033 158.841 57.85 158.762 58.6288C158.8 57.9027 159.028 57.1991 159.424 56.5878C158.981 56.6712 158.572 56.8817 158.248 57.1932C158.248 57.1932 158.368 56.3824 159.613 56.3118C159.613 56.3118 160.247 55.441 160.417 55.3875C160.417 55.3875 159.179 55.2848 158.428 55.6165C158.428 55.6165 159.088 54.8527 160.642 55.1993L161.502 54.4933C161.502 54.4933 159.871 54.2793 159.181 54.5168C159.181 54.5168 159.976 53.8407 161.736 54.3328L162.682 53.7701C162.682 53.7701 161.292 53.4728 160.464 53.5797C160.464 53.5797 161.339 53.1112 162.96 53.6182L163.637 53.3166C163.637 53.3166 162.618 53.1176 162.319 53.0855C162.02 53.0534 162.005 52.9721 162.005 52.9721C162.65 52.8653 163.313 52.9394 163.918 53.1861C163.918 53.1861 165.371 52.6619 165.345 52.5721Z" fill="#FFD8A1"/>
<path d="M115.724 47.508C115.724 47.508 117.605 39.5729 111.793 39.5451C111.793 39.5451 110.828 39.1856 110.22 40.0072C110.22 40.0072 110.634 40.0949 110.353 40.8779C110.255 41.1548 110.191 41.442 110.159 41.7337C110.118 42.1314 110.208 42.5317 110.415 42.874C110.415 42.874 110.959 45.2916 114.499 46.8063C114.499 46.8063 115.196 47.5936 115.406 47.6022L115.062 46.1495C115.062 46.1495 114.001 46.4426 113.248 45.9356C113.248 45.9356 115.017 46.1944 115.019 45.9356C115.019 45.8821 114.804 45.1739 114.804 45.1739C114.804 45.1739 112.958 45.6745 111.819 44.8594C111.819 44.8594 113.884 45.4499 114.725 44.9044L114.338 43.8517C114.338 43.8517 112.403 44.4786 111.079 43.5993C111.079 43.5993 113.261 44.1427 114.237 43.6292L113.71 42.6494C113.71 42.6494 111.819 43.2228 110.716 42.4847C110.716 42.4847 113.295 42.8569 113.575 42.4333C113.575 42.4333 113.038 41.5626 112.782 41.4C112.782 41.4 111.415 41.7808 110.813 41.2951C110.813 41.2951 112.565 41.3614 112.605 41.1775C112.605 41.1775 111.602 40.2297 110.836 40.0157C111.55 40.1774 112.208 40.5209 112.747 41.0127C112.739 40.5643 112.601 40.128 112.348 39.7569C112.348 39.7569 113.13 40.0136 112.992 41.2545C112.992 41.2545 113.745 42.0247 113.768 42.2001C113.768 42.2001 114.08 41.0042 113.88 40.2104C113.88 40.2104 114.525 40.9892 113.917 42.4547L114.467 43.4281C114.467 43.4281 114.966 41.8664 114.839 41.1475C114.839 41.1475 115.374 42.0418 114.585 43.6849L114.983 44.7097C114.983 44.7097 115.514 43.396 115.548 42.5702C115.548 42.5702 115.864 43.5073 115.084 45.0113L115.269 45.7259C115.269 45.7259 115.638 44.761 115.72 44.4743C115.802 44.1876 115.886 44.1855 115.886 44.1855C115.882 44.8364 115.697 45.4735 115.35 46.0254C115.35 46.0254 115.632 47.5187 115.724 47.508Z" fill="#FFD8A1"/>
<path d="M97.8364 50.2124C97.8364 50.2124 91.2762 45.3281 88.9311 50.6189C88.9311 50.6189 88.2153 51.357 88.729 52.2406C88.729 52.2406 88.9741 51.8962 89.5888 52.4674C89.8066 52.669 90.0476 52.8442 90.3068 52.9894C90.6578 53.184 91.0631 53.2591 91.461 53.2033C91.461 53.2033 93.9029 53.6719 96.7144 51.0382C96.7144 51.0382 97.7182 50.7173 97.8128 50.5291L96.3318 50.2702C96.3318 50.2702 96.177 51.3549 95.414 51.8405C95.414 51.8405 96.3576 50.3301 96.1125 50.221C96.0631 50.1974 95.3237 50.114 95.3237 50.114C95.3237 50.114 95.0486 52.001 93.8448 52.7134C93.8448 52.7134 95.2141 51.0639 95.0443 50.0798L93.9201 50.0199C93.9201 50.0199 93.7288 52.0288 92.3875 52.8931C92.3875 52.8931 93.7567 51.1195 93.6772 50.0242L92.5637 50.114C92.5637 50.114 92.338 52.0673 91.2182 52.7776C91.2182 52.7776 92.5917 50.5697 92.3101 50.1504C92.3101 50.1504 91.2934 50.2937 91.0419 50.4606C91.0419 50.4606 90.8463 51.8598 90.1585 52.2149C90.1585 52.2149 90.9215 50.6425 90.7668 50.5333C90.7668 50.5333 89.4921 51.0703 88.9913 51.6822C89.4245 51.0964 90.0039 50.6332 90.6722 50.3387C90.2564 50.1666 89.7992 50.1191 89.3567 50.2017C89.3567 50.2017 89.9027 49.5899 90.9817 50.2124C90.9817 50.2124 91.992 49.8337 92.1639 49.8808C92.1639 49.8808 91.1859 49.117 90.3756 48.9844C90.3756 48.9844 91.3514 48.7063 92.4584 49.8402L93.574 49.7268C93.574 49.7268 92.3337 48.6571 91.6223 48.4773C91.6223 48.4773 92.6605 48.3468 93.8577 49.7204L94.9583 49.7696C94.9583 49.7696 93.9631 48.7597 93.2129 48.396C93.2129 48.396 94.1995 48.4816 95.2742 49.7931L96.0072 49.9108C96.0072 49.9108 95.2656 49.1876 95.0335 48.9994C94.8014 48.8111 94.8336 48.7319 94.8336 48.7319C95.4316 48.9955 95.9443 49.4192 96.3146 49.9557C96.3146 49.9557 97.8085 50.3001 97.8364 50.2124Z" fill="#FFD8A1"/>
<path d="M119.677 4.833C119.677 4.833 113.117 -0.0534551 110.772 5.23949C110.772 5.23949 110.056 5.9776 110.57 6.86118C110.57 6.86118 110.815 6.51674 111.43 7.08796C111.649 7.28855 111.89 7.46302 112.15 7.60784C112.501 7.80256 112.906 7.87769 113.304 7.82179C113.304 7.82179 115.746 8.29032 118.557 5.65454C118.557 5.65454 119.561 5.33577 119.654 5.14536L118.173 4.89077C118.173 4.89077 118.02 5.97546 117.255 6.46111C117.255 6.46111 118.201 4.95067 117.956 4.84156C117.906 4.81803 117.167 4.73459 117.167 4.73459C117.167 4.73459 116.883 6.62585 115.679 7.334C115.679 7.334 117.046 5.6845 116.879 4.70036L115.754 4.64046C115.754 4.64046 115.561 6.64938 114.222 7.51157C114.222 7.51157 115.591 5.73798 115.512 4.64259L114.4 4.73245C114.4 4.73245 114.172 6.68789 113.053 7.39818C113.053 7.39818 114.428 5.19029 114.147 4.77096C114.147 4.77096 113.13 4.9143 112.878 5.08118C112.878 5.08118 112.683 6.48037 111.995 6.83551C111.995 6.83551 112.758 5.26303 112.603 5.15178C112.603 5.15178 111.329 5.69091 110.828 6.30279C111.26 5.71631 111.84 5.25304 112.509 4.95923C112.093 4.78595 111.634 4.73833 111.191 4.82231C111.191 4.82231 111.739 4.21043 112.818 4.833C112.818 4.833 113.829 4.45218 114 4.50139C114 4.50139 113.022 3.73762 112.212 3.60283C112.212 3.60283 113.186 3.32685 114.293 4.4586L115.408 4.34521C115.408 4.34521 114.17 3.2755 113.457 3.09365C113.457 3.09365 114.495 2.96528 115.694 4.33879L116.795 4.38586C116.795 4.38586 115.8 3.37605 115.047 3.01449C115.047 3.01449 116.036 3.10007 117.111 4.41154L117.842 4.5292C117.842 4.5292 117.098 3.81463 116.866 3.63064C116.634 3.44665 116.666 3.36536 116.666 3.36536C117.264 3.62863 117.777 4.05234 118.147 4.58911C118.147 4.58911 119.641 4.9143 119.677 4.833Z" fill="#FFD8A1"/>
<path d="M144.745 11.0225C144.745 11.0225 142.122 3.297 137.176 6.33285C137.176 6.33285 136.166 6.54679 136.087 7.55446C136.087 7.55446 136.484 7.40898 136.661 8.22197C136.726 8.51116 136.825 8.79186 136.955 9.05849C137.133 9.41731 137.422 9.70927 137.78 9.89072C137.78 9.89072 139.526 11.6558 143.343 11.0717C143.343 11.0717 144.351 11.3755 144.536 11.2707L143.462 10.2202C143.462 10.2202 142.718 11.0268 141.811 10.9947C141.811 10.9947 143.451 10.2844 143.315 10.0555C143.287 10.0105 142.726 9.52488 142.726 9.52488C142.726 9.52488 141.424 10.9219 140.027 10.8299C140.027 10.8299 142.092 10.2437 142.514 9.33233L141.624 8.64985C141.624 8.64985 140.321 10.1945 138.724 10.1475C138.724 10.1475 140.874 9.4607 141.417 8.51079L140.45 7.95668C140.45 7.95668 139.16 9.4393 137.823 9.39224C137.823 9.39224 140.214 8.35033 140.22 7.84543C140.22 7.84543 139.302 7.38973 138.999 7.38545C138.999 7.38545 138.041 8.42735 137.28 8.33322C137.28 8.33322 138.801 7.46675 138.737 7.28918C138.737 7.28918 137.383 7.01319 136.62 7.23569C137.31 6.99651 138.051 6.9412 138.769 7.07523C138.524 6.69848 138.174 6.40108 137.761 6.21946C137.761 6.21946 138.561 6.02477 139.096 7.14583C139.096 7.14583 140.145 7.4047 140.257 7.53949C140.257 7.53949 139.887 6.36066 139.296 5.79157C139.296 5.79157 140.257 6.11463 140.519 7.67855L141.503 8.21341C141.503 8.21341 141.097 6.62809 140.607 6.07398C140.607 6.07398 141.538 6.55321 141.74 8.36103L142.621 9.02211C142.621 9.02211 142.376 7.62721 141.963 6.90408C141.963 6.90408 142.729 7.53307 142.866 9.22108L143.401 9.73027C143.401 9.73027 143.204 8.71618 143.122 8.42949C143.04 8.14281 143.107 8.12355 143.107 8.12355C143.449 8.67855 143.629 9.31682 143.629 9.96774C143.629 9.96774 144.67 11.0781 144.745 11.0225Z" fill="#FFD8A1"/>
<path d="M127.63 11.4031C127.63 11.4031 119.484 10.5002 120.157 16.2532C120.157 16.2532 119.914 17.2501 120.802 17.7508C120.802 17.7508 120.838 17.3229 121.661 17.5154C121.952 17.5777 122.249 17.6072 122.547 17.6032C122.949 17.5959 123.338 17.4585 123.654 17.2116C123.654 17.2116 125.999 16.3837 127.093 12.6932C127.093 12.6932 127.794 11.9123 127.779 11.7005L126.371 12.2182C126.371 12.2182 126.801 13.2302 126.371 14.0346C126.371 14.0346 126.416 12.2567 126.156 12.2845C126.102 12.2845 125.423 12.5926 125.423 12.5926C125.423 12.5926 126.145 14.3576 125.47 15.5878C125.47 15.5878 125.81 13.4741 125.163 12.7124L124.163 13.2259C124.163 13.2259 125.023 15.0551 124.303 16.4757C124.303 16.4757 124.582 14.2549 123.953 13.3542L123.039 13.9961C123.039 13.9961 123.839 15.7953 123.235 16.9742C123.235 16.9742 123.297 14.3769 122.839 14.1565C122.839 14.1565 122.035 14.7984 121.904 15.0637C121.904 15.0637 122.448 16.3687 122.037 17.0212C122.037 17.0212 121.893 15.2819 121.704 15.2648C121.704 15.2648 120.879 16.3708 120.759 17.1517C120.833 16.4278 121.097 15.7359 121.524 15.1449C121.078 15.2063 120.659 15.3959 120.32 15.6905C120.32 15.6905 120.479 14.8882 121.726 14.8797C121.726 14.8797 122.403 14.0431 122.586 13.9982C122.586 13.9982 121.354 13.8335 120.587 14.1266C120.587 14.1266 121.285 13.3949 122.82 13.8206L123.725 13.1596C123.725 13.1596 122.089 12.8301 121.397 13.044C121.397 13.044 122.227 12.4022 123.959 12.9905L124.933 12.4749C124.933 12.4749 123.559 12.107 122.727 12.1733C122.727 12.1733 123.624 11.7454 125.217 12.338L125.909 12.0706C125.909 12.0706 124.901 11.8203 124.604 11.7732C124.307 11.7261 124.297 11.6448 124.297 11.6448C124.946 11.5706 125.604 11.6773 126.197 11.9529C126.197 11.9529 127.646 11.4929 127.63 11.4031Z" fill="#FFD8A1"/>
<path d="M198.908 74.3387C198.908 74.3387 190.765 73.4359 191.438 79.1824C191.438 79.1824 191.195 80.1794 192.083 80.68C192.083 80.68 192.12 80.2521 192.943 80.4425C193.233 80.5069 193.531 80.5364 193.828 80.5302C194.231 80.5241 194.62 80.3865 194.935 80.1387C194.935 80.1387 197.281 79.3108 198.364 75.6224C198.364 75.6224 199.065 74.8393 199.05 74.6297L197.642 75.1453C197.642 75.1453 198.072 76.1594 197.642 76.9638C197.642 76.9638 197.687 75.1838 197.427 75.2137C197.373 75.2137 196.694 75.5197 196.694 75.5197C196.694 75.5197 197.416 77.2847 196.741 78.5149C196.741 78.5149 197.081 76.4033 196.434 75.6395L195.434 76.1551C195.434 76.1551 196.294 77.9843 195.576 79.4049C195.576 79.4049 195.853 77.1842 195.223 76.2813L194.31 76.9231C194.31 76.9231 195.11 78.7224 194.506 79.8991C194.506 79.8991 194.568 77.3018 194.11 77.0836C194.11 77.0836 193.308 77.7254 193.175 77.9907C193.175 77.9907 193.721 79.2958 193.308 79.9483C193.308 79.9483 193.164 78.209 192.975 78.1918C192.975 78.1918 192.15 79.2979 192.029 80.0788C192.104 79.3548 192.368 78.6629 192.795 78.072C192.348 78.1323 191.93 78.322 191.591 78.6176C191.591 78.6176 191.75 77.8132 192.997 77.8046C192.997 77.8046 193.676 76.9681 193.856 76.9253C193.856 76.9253 192.625 76.7584 191.857 77.0515C191.857 77.0515 192.556 76.322 194.093 76.7477L194.996 76.0866C194.996 76.0866 193.379 75.7828 192.676 75.9925C192.676 75.9925 193.506 75.3507 195.239 75.9369L196.212 75.4234C196.212 75.4234 194.839 75.0554 194.007 75.1218C194.007 75.1218 194.903 74.6939 196.496 75.2865L197.188 75.0169C197.188 75.0169 196.18 74.7666 195.883 74.7217C195.587 74.6768 195.576 74.5933 195.576 74.5933C196.226 74.5178 196.884 74.6237 197.476 74.8992C197.476 74.8992 198.929 74.4307 198.908 74.3387Z" fill="#FFD8A1"/>
<path d="M211.355 81.9083C211.355 81.9083 203.213 81.0076 203.886 86.7519C203.886 86.7519 203.645 87.7489 204.531 88.2495C204.531 88.2495 204.567 87.8217 205.391 88.0142C205.681 88.077 205.977 88.1058 206.274 88.0998C206.674 88.0916 207.061 87.9551 207.377 87.7104C207.377 87.7104 209.72 86.8824 210.803 83.1919C210.803 83.1919 211.506 82.411 211.489 82.1992L210.081 82.7148C210.081 82.7148 210.511 83.7289 210.081 84.5333C210.081 84.5333 210.126 82.7555 209.866 82.7833C209.812 82.7833 209.133 83.0892 209.133 83.0892C209.133 83.0892 209.855 84.8543 209.18 86.0844C209.18 86.0844 209.52 83.9728 208.873 83.2112L207.873 83.7246C207.873 83.7246 208.733 85.5539 208.015 86.9744C208.015 86.9744 208.292 84.7537 207.663 83.853L206.749 84.4948C206.749 84.4948 207.549 86.2941 206.947 87.4729C206.947 87.4729 207.007 84.8735 206.549 84.6553C206.549 84.6553 205.747 85.2971 205.614 85.5624C205.614 85.5624 206.16 86.8675 205.747 87.52C205.747 87.52 205.603 85.7806 205.414 85.7635C205.414 85.7635 204.589 86.8696 204.471 87.6505C204.545 86.9268 204.808 86.2351 205.234 85.6437C204.788 85.7051 204.369 85.8947 204.03 86.1893C204.03 86.1893 204.191 85.3848 205.438 85.3784C205.438 85.3784 206.115 84.5419 206.298 84.497C206.298 84.497 205.066 84.3322 204.299 84.6253C204.299 84.6253 204.997 83.8937 206.534 84.3194L207.437 83.6583C207.437 83.6583 205.82 83.3545 205.118 83.5642C205.118 83.5642 205.947 82.9224 207.68 83.5107L208.654 82.9951C208.654 82.9951 207.28 82.6271 206.448 82.6934C206.448 82.6934 207.344 82.2656 208.937 82.8582L209.629 82.5907C209.629 82.5907 208.621 82.3404 208.327 82.2934C208.032 82.2463 208.017 82.165 208.017 82.165C208.667 82.0908 209.325 82.1974 209.917 82.4731C209.917 82.4731 211.377 82.0003 211.355 81.9083Z" fill="#FFD8A1"/>
<path d="M183.719 18.1509C183.719 18.1509 177.159 13.2666 174.814 18.5574C174.814 18.5574 174.098 19.2955 174.612 20.1791C174.612 20.1791 174.857 19.8346 175.472 20.4059C175.69 20.6075 175.931 20.7827 176.19 20.9279C176.541 21.1223 176.946 21.1974 177.344 21.1418C177.344 21.1418 179.786 21.6104 182.6 18.9767C182.6 18.9767 183.601 18.6558 183.696 18.4675L182.219 18.2022C182.219 18.2022 182.064 19.2869 181.301 19.7726C181.301 19.7726 182.245 18.2622 182 18.153C181.95 18.1295 181.213 18.0461 181.213 18.0461C181.213 18.0461 180.936 19.933 179.732 20.6455C179.732 20.6455 181.101 18.996 180.932 18.0118L179.807 17.9519C179.807 17.9519 179.616 19.9609 178.275 20.8252C178.275 20.8252 179.646 19.0516 179.565 17.9562L178.451 18.0461C178.451 18.0461 178.236 19.9994 177.106 20.7097C177.106 20.7097 178.481 18.5018 178.197 18.0824C178.197 18.0824 177.181 18.2258 176.929 18.3927C176.929 18.3927 176.736 19.7918 176.048 20.147C176.048 20.147 176.809 18.5745 176.654 18.4654C176.654 18.4654 175.379 19.0024 174.879 19.6143C175.312 19.0284 175.891 18.5653 176.56 18.2707C176.144 18.0987 175.687 18.0511 175.244 18.1338C175.244 18.1338 175.792 17.5219 176.871 18.1445C176.871 18.1445 177.879 17.7658 178.051 17.8129C178.051 17.8129 177.073 17.0491 176.263 16.9165C176.263 16.9165 177.239 16.6383 178.346 17.7722L179.461 17.6588C179.461 17.6588 178.223 16.5891 177.51 16.4094C177.51 16.4094 178.548 16.2789 179.745 17.6524L180.848 17.7016C180.848 17.7016 179.85 16.6918 179.1 16.3281C179.1 16.3281 180.089 16.4137 181.162 17.7252L181.895 17.8428C181.895 17.8428 181.153 17.1197 180.921 16.9314C180.689 16.7432 180.723 16.6811 180.723 16.6811C181.32 16.9451 181.832 17.3687 182.202 17.9049C182.202 17.9049 183.692 18.2386 183.719 18.1509Z" fill="#FFD8A1"/>
<path d="M188.788 53.4128C188.788 53.4128 186.527 45.5761 181.441 48.3894C181.441 48.3894 180.422 48.5456 180.295 49.5597C180.295 49.5597 180.699 49.4335 180.839 50.2529C180.891 50.5472 180.977 50.8345 181.097 51.1086C181.256 51.4773 181.533 51.7839 181.884 51.9815C181.884 51.9815 183.547 53.8214 187.386 53.4107C187.386 53.4107 188.379 53.7572 188.569 53.6631L187.552 52.5634C187.552 52.5634 186.772 53.3379 185.869 53.2652C185.869 53.2652 187.537 52.6233 187.408 52.3944C187.382 52.3474 186.845 51.836 186.845 51.836C186.845 51.836 185.482 53.1753 184.089 53.0191C184.089 53.0191 186.18 52.5271 186.64 51.6414L185.781 50.9182C185.781 50.9182 184.409 52.403 182.817 52.2875C182.817 52.2875 184.983 51.6948 185.581 50.7727L184.639 50.1758C184.639 50.1758 183.274 51.5986 181.95 51.4916C181.95 51.4916 184.386 50.5567 184.416 50.0539C184.416 50.0539 183.517 49.5575 183.214 49.5404C183.214 49.5404 182.21 50.5374 181.447 50.409C181.447 50.409 183.008 49.611 182.952 49.4313C182.952 49.4313 181.611 49.0954 180.839 49.2816C181.538 49.0753 182.279 49.0539 182.988 49.2195C182.761 48.8324 182.425 48.52 182.021 48.321C182.021 48.321 182.829 48.1605 183.311 49.3051C183.311 49.3051 184.345 49.6089 184.452 49.7501C184.452 49.7501 184.136 48.5542 183.571 47.9615C183.571 47.9615 184.517 48.3252 184.708 49.8999L185.667 50.4796C185.667 50.4796 185.331 48.8751 184.867 48.3103C184.867 48.3103 185.774 48.8301 185.897 50.6444L186.757 51.344C186.757 51.344 186.574 49.9405 186.196 49.2045C186.196 49.2045 186.933 49.8678 186.993 51.5579L187.505 52.0928C187.505 52.0928 187.354 51.0701 187.29 50.7792C187.225 50.4882 187.29 50.4475 187.29 50.4475C187.608 51.0166 187.76 51.6626 187.73 52.3131C187.73 52.3131 188.71 53.4641 188.788 53.4128Z" fill="#FFD8A1"/>
<path d="M138.399 71.0716C138.399 71.0716 134.008 64.1869 129.93 68.3075C129.93 68.3075 128.997 68.7354 129.161 69.7516C129.161 69.7516 129.515 69.5163 129.881 70.2651C130.012 70.5304 130.175 70.779 130.367 71.0053C130.623 71.3142 130.974 71.5307 131.366 71.6215C131.366 71.6215 133.483 72.9222 137.052 71.4503C137.052 71.4503 138.103 71.5059 138.257 71.3626L136.968 70.5924C136.968 70.5924 136.437 71.5551 135.549 71.737C135.549 71.737 136.972 70.6673 136.781 70.4704C136.744 70.4319 136.082 70.0939 136.082 70.0939C136.082 70.0939 135.151 71.7584 133.771 72.0001C133.771 72.0001 135.639 70.9411 135.833 69.9613L134.803 69.5098C134.803 69.5098 133.907 71.3177 132.346 71.6493C132.346 71.6493 134.259 70.4747 134.571 69.4221L133.496 69.114C133.496 69.114 132.589 70.862 131.289 71.1294C131.289 71.1294 133.361 69.5505 133.247 69.0584C133.247 69.0584 132.245 68.8338 131.957 68.9022C131.957 68.9022 131.276 70.141 130.506 70.2308C130.506 70.2308 131.779 69.0285 131.674 68.8701C131.674 68.8701 130.291 68.9236 129.604 69.3194C130.217 68.9238 130.924 68.6951 131.654 68.6562C131.327 68.3483 130.917 68.1423 130.474 68.0636C130.474 68.0636 131.203 67.6849 131.979 68.6476C131.979 68.6476 133.054 68.6476 133.202 68.7546C133.202 68.7546 132.557 67.6849 131.85 67.2848C131.85 67.2848 132.86 67.3704 133.488 68.8274L134.573 69.114C134.573 69.114 133.797 67.6699 133.193 67.257C133.193 67.257 134.21 67.5009 134.84 69.2103L135.854 69.6382C135.854 69.6382 135.283 68.3438 134.709 67.7384C134.709 67.7384 135.603 68.1663 136.138 69.773L136.783 70.1431C136.783 70.1431 136.353 69.2039 136.2 68.945C136.048 68.6862 136.108 68.6263 136.108 68.6263C136.573 69.0835 136.901 69.6606 137.056 70.2929C137.056 70.2929 138.341 71.1444 138.399 71.0716Z" fill="#FFD8A1"/>
<path d="M167.261 35.8956C167.261 35.8956 163.084 28.8804 158.878 32.8726C158.878 32.8726 157.932 33.2791 158.065 34.2931C158.065 34.2931 158.424 34.0664 158.768 34.8259C158.891 35.0958 159.046 35.3501 159.23 35.5832C159.477 35.8987 159.822 36.1243 160.21 36.2251C160.21 36.2251 162.285 37.59 165.898 36.2251C165.898 36.2251 166.947 36.3128 167.106 36.1737L165.844 35.365C165.844 35.365 165.285 36.3085 164.391 36.4647C164.391 36.4647 165.846 35.4313 165.664 35.2366C165.625 35.196 164.976 34.8366 164.976 34.8366C164.976 34.8366 163.993 36.4732 162.611 36.6722C162.611 36.6722 164.511 35.6709 164.733 34.6996L163.718 34.2247C163.718 34.2247 162.766 36.0068 161.195 36.2914C161.195 36.2914 163.144 35.1767 163.488 34.1348L162.426 33.7925C162.426 33.7925 161.463 35.5041 160.157 35.7394C160.157 35.7394 162.276 34.2247 162.177 33.7305C162.177 33.7305 161.184 33.4737 160.887 33.5336C160.887 33.5336 160.167 34.751 159.396 34.8173C159.396 34.8173 160.705 33.6577 160.606 33.4951C160.606 33.4951 159.222 33.5058 158.523 33.8802C159.149 33.5045 159.862 33.298 160.593 33.2812C160.275 32.9632 159.871 32.7445 159.43 32.6522C159.43 32.6522 160.172 32.2949 160.935 33.2812C160.935 33.2812 162.009 33.3176 162.153 33.4267C162.153 33.4267 161.545 32.357 160.849 31.9162C160.849 31.9162 161.855 32.0318 162.437 33.508L163.512 33.8289C163.512 33.8289 162.783 32.3612 162.19 31.9291C162.19 31.9291 163.2 32.2051 163.776 33.9316L164.776 34.3958C164.776 34.3958 164.245 33.0844 163.701 32.4704C163.701 32.4704 164.58 32.926 165.068 34.5477L165.698 34.9371C165.698 34.9371 165.294 33.9851 165.152 33.7219C165.01 33.4588 165.07 33.401 165.07 33.401C165.521 33.8724 165.831 34.4589 165.967 35.0954C165.967 35.0954 167.198 35.9662 167.261 35.8956Z" fill="#FFD8A1"/>
<path d="M140.837 50.6465C140.837 50.6465 141.052 42.4953 135.362 43.6442C135.362 43.6442 134.343 43.488 133.914 44.4165C133.914 44.4165 134.343 44.4165 134.223 45.2402C134.184 45.5339 134.179 45.8312 134.21 46.1259C134.249 46.5257 134.419 46.9016 134.694 47.1956C134.694 47.1956 135.719 49.4506 139.504 50.2165C139.504 50.2165 140.345 50.8476 140.556 50.8134L139.911 49.4613C139.911 49.4613 138.933 49.9619 138.092 49.6217C138.092 49.6217 139.876 49.5169 139.827 49.2559C139.827 49.2024 139.457 48.552 139.457 48.552C139.457 48.552 137.75 49.4185 136.471 48.8494C136.471 48.8494 138.621 49.0099 139.324 48.306L138.724 47.3582C138.724 47.3582 136.966 48.3595 135.483 47.769C135.483 47.769 137.729 47.8588 138.58 47.1592L137.864 46.3035C137.864 46.3035 136.13 47.2491 134.9 46.7485C134.9 46.7485 137.505 46.5923 137.695 46.1195C137.695 46.1195 136.99 45.3771 136.706 45.2637C136.706 45.2637 135.446 45.9055 134.758 45.559C134.758 45.559 136.478 45.2723 136.489 45.0819C136.489 45.0819 135.313 44.3566 134.52 44.3031C135.251 44.3161 135.966 44.5197 136.594 44.8936C136.496 44.4563 136.272 44.057 135.949 43.7447C135.949 43.7447 136.768 43.8367 136.88 45.0712C136.88 45.0712 137.776 45.6745 137.834 45.8414C137.834 45.8414 137.897 44.6069 137.538 43.8709C137.538 43.8709 138.329 44.5021 138.032 46.0596L138.769 46.9025C138.769 46.9025 138.937 45.2723 138.668 44.5941C138.668 44.5941 139.373 45.3621 138.939 47.1293L139.535 48.0514C139.535 48.0514 139.788 46.6586 139.653 45.8392C139.653 45.8392 140.151 46.695 139.696 48.3231L140.022 48.9863C140.022 48.9863 140.188 47.9658 140.209 47.6684C140.231 47.3711 140.313 47.3518 140.313 47.3518C140.442 47.99 140.391 48.6515 140.164 49.2623C140.164 49.2623 140.743 50.6743 140.837 50.6465Z" fill="#FFD8A1"/>
<path opacity="0.1" d="M150.243 154.221C153.44 154.221 156.032 153.785 156.032 153.247C156.032 152.71 153.44 152.274 150.243 152.274C147.046 152.274 144.455 152.71 144.455 153.247C144.455 153.785 147.046 154.221 150.243 154.221Z" fill="#FAF2E7"/>
<path opacity="0.1" d="M129.142 169C132.339 169 134.93 168.564 134.93 168.027C134.93 167.489 132.339 167.053 129.142 167.053C125.945 167.053 123.353 167.489 123.353 168.027C123.353 168.564 125.945 169 129.142 169Z" fill="#FAF2E7"/>
<path opacity="0.1" d="M20.0203 161.429C23.2172 161.429 25.8089 160.993 25.8089 160.455C25.8089 159.918 23.2172 159.482 20.0203 159.482C16.8233 159.482 14.2317 159.918 14.2317 160.455C14.2317 160.993 16.8233 161.429 20.0203 161.429Z" fill="#6C63FF"/>
<path opacity="0.1" d="M173.047 168.026C176.244 168.026 178.836 167.591 178.836 167.053C178.836 166.515 176.244 166.08 173.047 166.08C169.85 166.08 167.259 166.515 167.259 167.053C167.259 167.591 169.85 168.026 173.047 168.026Z" fill="#FAF2E7"/>
<path d="M179.074 156.157C183.848 156.157 187.717 155.506 187.717 154.702C187.717 153.899 183.848 153.248 179.074 153.248C174.301 153.248 170.431 153.899 170.431 154.702C170.431 155.506 174.301 156.157 179.074 156.157Z" fill="#FFD8A1"/>
<path d="M182.657 152.321C183.052 152.002 183.339 151.571 183.481 151.085C183.588 150.592 183.378 150.004 182.907 149.824C182.378 149.623 181.813 149.987 181.383 150.355C180.953 150.723 180.465 151.144 179.904 151.067C180.192 150.807 180.407 150.477 180.529 150.109C180.651 149.741 180.676 149.349 180.6 148.969C180.576 148.811 180.509 148.663 180.407 148.541C180.112 148.228 179.582 148.363 179.229 148.609C178.111 149.392 177.8 150.903 177.793 152.263C177.681 151.773 177.776 151.262 177.774 150.766C177.772 150.269 177.632 149.696 177.204 149.435C176.942 149.289 176.645 149.215 176.344 149.221C175.841 149.204 175.28 149.253 174.939 149.619C174.509 150.073 174.623 150.836 174.992 151.331C175.362 151.825 175.927 152.144 176.448 152.49C176.864 152.738 177.219 153.075 177.488 153.476C177.519 153.532 177.544 153.591 177.563 153.652H180.714C181.42 153.298 182.073 152.851 182.657 152.321Z" fill="#FFD8A1"/>
<path d="M16.134 155.93C16.134 155.93 19.4335 155.83 20.433 155.124C21.4325 154.418 25.5123 153.577 25.7595 154.709C26.0067 155.84 30.7205 160.333 26.9933 160.363C23.2661 160.393 18.333 159.785 17.3399 159.182C16.3468 158.579 16.134 155.93 16.134 155.93Z" fill="#A8A8A8"/>
<path opacity="0.2" d="M27.0556 159.969C23.3284 159.999 18.3953 159.392 17.4022 158.788C16.6456 158.331 16.3447 156.685 16.2437 155.926H16.134C16.134 155.926 16.349 158.577 17.3356 159.178C18.3222 159.779 23.2618 160.389 26.989 160.359C28.0637 160.359 28.4356 159.969 28.4162 159.405C28.2658 159.749 27.8552 159.963 27.0556 159.969Z" fill="black"/>
</g>
<defs>
<linearGradient id="paint0_linear" x1="47.9316" y1="92.7271" x2="115.024" y2="92.7271" gradientUnits="userSpaceOnUse">
<stop stop-color="#808080" stop-opacity="0.25"/>
<stop offset="0.54" stop-color="#808080" stop-opacity="0.12"/>
<stop offset="1" stop-color="#808080" stop-opacity="0.1"/>
</linearGradient>
<clipPath id="clip0">
<rect width="217" height="169" fill="white"/>
</clipPath>
</defs>
</svg>
